# File created by Blade
# Date/Time:  Tue Jan 27 18:09:10 2015
# Frame Rate: 120.000 fps
#------------------------------------------------------
:FULLY-SPECIFIED
:DEGREES
3465
root -1.613995 31.929419 -6.509779 6.046936 -6.030315 0.737347
Spine -2.418995 -27.175216 -7.259520
Head 33.992883 22.930370 11.800978
LeftShoulder -18.737028 19.561325 2.278224
LeftArm 22.079923 31.095121 -73.064275
LeftForeArm -0.083497 0.000000 19.156184
LeftHand -12.092358 -0.000000 0.401635
LeftHandThumb1 -26.253704 0.000000 33.147579
RightShoulder -24.359067 -9.938936 -31.048227
RightArm -38.729568 76.283762 13.846269
RightForeArm 43.851187 -0.000000 143.727126
RightHand 2.621679 -0.000000 16.049039
RightHandThumb1 -24.326973 -0.000000 -32.862282
LeftUpLeg 0.267980 7.874558 0.497830
LeftLeg -0.047715 -0.000000 0.000000
LeftFoot -20.575858 20.397476 -26.446339
LeftToeBase 8.701380 -0.000000 -0.000000
RightUpLeg -2.021517 4.290691 -2.162074
RightLeg -1.377475 -0.000000 0.000000
RightFoot -12.748545 -8.993207 9.249120
RightToeBase 4.460236 -0.000000 -0.000000
3466
root -1.616748 31.930295 -6.505525 6.067552 -5.985825 0.723767
Spine -2.436321 -27.260783 -7.244773
Head 34.013929 22.965456 11.818628
LeftShoulder -18.693949 19.555943 2.355743
LeftArm 21.984617 31.158929 -73.151306
LeftForeArm -0.040891 -0.000000 19.113544
LeftHand -12.138210 0.000000 0.472533
LeftHandThumb1 -26.253704 0.000000 33.147579
RightShoulder -24.288078 -9.836710 -31.029708
RightArm -39.225925 75.946612 13.388945
RightForeArm 43.189046 -0.000000 142.276546
RightHand 2.148620 -0.000000 15.278214
RightHandThumb1 -24.326973 -0.000000 -32.862282
LeftUpLeg 0.271769 7.868781 0.525137
LeftLeg -0.072385 -0.000000 0.000000
LeftFoot -20.569304 20.299199 -26.516910
LeftToeBase 8.749088 -0.000000 -0.000000
RightUpLeg -2.031652 4.336275 -2.136223
RightLeg -1.376193 -0.000000 0.000000
RightFoot -12.779051 -9.112246 9.332056
RightToeBase 4.628010 -0.000000 -0.000000
3467
root -1.616669 31.931142 -6.502096 6.089428 -5.954860 0.734023
Spine -2.456957 -27.340880 -7.249194
Head 34.019979 22.966852 11.840103
LeftShoulder -18.666762 19.580961 2.413170
LeftArm 21.944839 31.227629 -73.200690
LeftForeArm -0.031983 -0.000000 19.047039
LeftHand -12.093578 0.000000 0.398720
LeftHandThumb1 -26.253704 0.000000 33.147579
RightShoulder -24.226363 -9.802750 -31.046295
RightArm -39.912679 75.792521 12.765624
RightForeArm 43.176061 -0.000000 140.737359
RightHand 1.381295 -0.000000 15.029664
RightHandThumb1 -24.326973 -0.000000 -32.862282
LeftUpLeg 0.294430 7.724289 0.514976
LeftLeg -0.181350 -0.000000 0.000000
LeftFoot -20.509266 20.470369 -26.444908
LeftToeBase 8.718171 -0.000000 -0.000000
RightUpLeg -2.053175 4.372666 -2.150803
RightLeg -1.355452 -0.000000 0.000000
RightFoot -12.786505 -9.157917 9.344977
RightToeBase 4.460695 -0.000000 -0.000000
3468
root -1.618356 31.931498 -6.498536 6.100192 -5.935748 0.725950
Spine -2.446681 -27.425700 -7.245041
Head 34.001432 23.055463 11.847938
LeftShoulder -18.677172 19.599437 2.454150
LeftArm 21.933336 31.299221 -73.233895
LeftForeArm -0.023800 0.000000 18.941003
LeftHand -12.045996 -0.000000 0.292083
LeftHandThumb1 -26.253704 0.000000 33.147579
RightShoulder -24.131984 -9.689103 -31.093215
RightArm -40.212630 75.415643 12.515953
RightForeArm 42.464780 -0.000000 139.090862
RightHand 1.167918 0.000000 14.246823
RightHandThumb1 -24.326973 -0.000000 -32.862282
LeftUpLeg 0.300787 7.738961 0.524627
LeftLeg -0.210233 -0.000000 0.000000
LeftFoot -20.495076 20.457932 -26.445198
LeftToeBase 8.742203 -0.000000 -0.000000
RightUpLeg -2.065935 4.420588 -2.143065
RightLeg -1.329291 -0.000000 0.000000
RightFoot -12.813897 -9.195379 9.386261
RightToeBase 4.499904 -0.000000 -0.000000
3469
root -1.620421 31.931837 -6.494790 6.103586 -5.929335 0.717480
Spine -2.430094 -27.486913 -7.252247
Head 33.992509 23.119826 11.887115
LeftShoulder -18.676868 19.632689 2.496844
LeftArm 21.950263 31.404602 -73.234912
LeftForeArm -0.112591 -0.000000 18.822365
LeftHand -11.918652 -0.000000 0.160146
LeftHandThumb1 -26.253704 0.000000 33.147579
RightShoulder -23.985918 -9.562437 -31.152223
RightArm -41.095160 75.155904 11.698890
RightForeArm 42.128610 0.000000 137.319051
RightHand 0.931267 0.000000 13.562096
RightHandThumb1 -24.326973 -0.000000 -32.862282
LeftUpLeg 0.309892 7.767474 0.541940
LeftLeg -0.203099 -0.000000 0.000000
LeftFoot -20.495508 20.368662 -26.485748
LeftToeBase 8.745989 -0.000000 -0.000000
RightUpLeg -2.066400 4.482128 -2.134548
RightLeg -1.314492 -0.000000 0.000000
RightFoot -12.835949 -9.260954 9.403355
RightToeBase 4.513982 -0.000000 -0.000000
3470
root -1.620641 31.932282 -6.490946 6.103689 -5.943355 0.715265
Spine -2.419029 -27.533666 -7.257518
Head 33.994798 23.173968 11.923894
LeftShoulder -18.663403 19.658700 2.520729
LeftArm 21.938271 31.482438 -73.247915
LeftForeArm -0.156254 -0.000000 18.722416
LeftHand -11.932419 -0.000000 0.172839
LeftHandThumb1 -26.253704 0.000000 33.147579
RightShoulder -23.902412 -9.480803 -31.217984
RightArm -41.435081 74.897809 11.409349
RightForeArm 41.719103 0.000000 135.499272
RightHand 0.647816 -0.000000 12.836857
RightHandThumb1 -24.326973 -0.000000 -32.862282
LeftUpLeg 0.330578 7.748510 0.539071
LeftLeg -0.246374 -0.000000 0.000000
LeftFoot -20.478587 20.462879 -26.444507
LeftToeBase 8.693451 -0.000000 -0.000000
RightUpLeg -2.081911 4.502159 -2.133368
RightLeg -1.269934 -0.000000 0.000000
RightFoot -12.855080 -9.265179 9.391604
RightToeBase 4.488865 -0.000000 -0.000000
